<?xml version="1.0" encoding="UTF-8"?>
<svg version="1.1" viewBox="0 0 24 25" xmlns="http://www.w3.org/2000/svg">
<g fill="none" fill-rule="evenodd">
<g transform="translate(-85 -406)" fill="#fff">
<g transform="translate(72 396)">
<path d="m24.875 11.25c-3.1 0-5.625 2.5238-5.625 5.625s2.525 5.625 5.625 5.625 5.625-2.5238 5.625-5.625-2.525-5.625-5.625-5.625m0 12.5c-3.7912 0-6.875-3.0838-6.875-6.875s3.0838-6.875 6.875-6.875 6.875 3.0838 6.875 6.875-3.0838 6.875-6.875 6.875m0 2.5c-4.3575 0-7.5762 1.1912-9.3012 3.445-1.295 1.6888-1.3225 3.415-1.3238 3.4325 0 0.3425 0.28125 0.6225 0.625 0.6225h20c0.34375 0 0.625-0.28 0.625-0.625 0-0.015-0.02875-1.7412-1.3238-3.43-1.7275-2.2538-4.9438-3.445-9.3012-3.445m10 8.75h-20c-1.0338 0-1.875-0.84125-1.875-1.875 0-0.085 0.0175-2.1062 1.5312-4.125 0.88125-1.175 2.0875-2.1088 3.5862-2.7738 1.8312-0.81375 4.1038-1.2262 6.7575-1.2262s4.9262 0.4125 6.7575 1.2262c1.4988 0.66625 2.705 1.5988 3.5862 2.7738 1.5138 2.0188 1.5312 4.04 1.5312 4.125 0 1.0338-0.84125 1.875-1.875 1.875"/>
</g>
</g>
</g>
</svg>
